<?xml version="1.0" encoding="utf-8"?>
<!-- Generator: Adobe Illustrator 19.2.1, SVG Export Plug-In . SVG Version: 6.00 Build 0)  -->
<svg version="1.1" id="Layer_1" xmlns="http://www.w3.org/2000/svg" xmlns:xlink="http://www.w3.org/1999/xlink" x="0px" y="0px"
	 viewBox="0 0 186.7 140" style="enable-background:new 0 0 186.7 140;" xml:space="preserve">
<style type="text/css">
	.st0{fill:#FBA85F;}
	.st1{fill:#0BB0E7;}
	.st2{fill:#FA9E4D;}
	.st3{fill:#EB5540;}
	.st4{fill:#24B8E9;}
	.st5{fill:#FFFFFF;}
</style>
<path class="st4" d="M161.3,117.3H37.3c-2.8,0-5-2.3-5-5V31c0-2.8,2.3-5,5-5h123.9c2.8,0,5,2.3,5,5v81.3
	C166.3,115,164,117.3,161.3,117.3z"/>
<path class="st4" d="M162.7,120.1H35.9c-3.1,0-5.6-2.5-5.6-5.6v-0.7c0-3.1,2.5-5.6,5.6-5.6h126.8c3.1,0,5.6,2.5,5.6,5.6v0.7
	C168.3,117.6,165.8,120.1,162.7,120.1z"/>
<rect x="42" y="37" class="st5" width="114.7" height="66.8"/>
<path class="st4" d="M56.9,88.7H37.4c-6.6,0-12-5.4-12-12V25.1c0-6.6,5.4-12,12-12h19.5c6.6,0,12,5.4,12,12v51.6
	C68.9,83.3,63.5,88.7,56.9,88.7z"/>
<path class="st5" d="M54.5,21H39.8c-0.8,0-1.5-0.7-1.5-1.5v0c0-0.8,0.7-1.5,1.5-1.5h14.7c0.8,0,1.5,0.7,1.5,1.5v0
	C56,20.3,55.3,21,54.5,21z"/>
<ellipse class="st5" cx="47.2" cy="80" rx="5.1" ry="4.9"/>
<rect x="30.8" y="26" class="st5" width="32.8" height="46"/>
</svg>
