<?xml version="1.0" encoding="utf-8"?>
<!-- Generator: Adobe Illustrator 19.2.1, SVG Export Plug-In . SVG Version: 6.00 Build 0)  -->
<svg version="1.1" id="Layer_1" xmlns="http://www.w3.org/2000/svg" xmlns:xlink="http://www.w3.org/1999/xlink" x="0px" y="0px"
	 viewBox="0 0 127.5 128" style="enable-background:new 0 0 127.5 128;" xml:space="preserve">
<style type="text/css">
	.st0{fill:#FBA85F;}
	.st1{opacity:0.9;fill:#FA9E4D;}
	.st2{fill:#0BB0E7;}
	.st3{fill:#FA9E4D;}
	.st4{fill:#EB5540;}
	.st5{fill:#24B8E9;}
	.st6{fill:#FFFFFF;}
	.st7{stroke:#FA9E4D;stroke-miterlimit:10;}
	.st8{fill:none;stroke:#FA9E4D;stroke-miterlimit:10;}
</style>
<path class="st0" d="M89.1,56.7c0.4-2.9,1.2-5.8,2.5-8.8c2.6-6,5.4-11.9,9.5-17l-23.9-8c-11,15.8-9.9,18.1-14,32.8l-1.2,5.4
	c6.1,0.1,12.1,0.6,18.1,1.5c2.3,0.4,4.6,0.9,7,1.4c0.6-2.4,1.2-4.7,1.8-7.1L89.1,56.7z"/>
<path class="st0" d="M42,56.2c0.1-2.9-0.2-5.9-1-9.1c-1.6-6.4-3.3-12.6-6.5-18.4l24.9-3.9c8.2,17.5,6.7,19.5,8.3,34.7l0.3,5.5
	c-6-0.9-12-1.5-18.1-1.6c-2.4,0-4.7,0.2-7.1,0.2c-0.2-2.4-0.4-4.8-0.6-7.3L42,56.2z"/>
<path class="st1" d="M76.9,46.8c-0.1-2.9,0.2-5.9,1-9.1c1.6-6.4,3.3-12.6,6.5-18.4l-24.9-3.9c-8.2,17.5-6.7,19.5-8.3,34.7l-0.3,5.5
	c6-0.9,12-1.5,18.1-1.6c2.4,0,4.7,0.2,7.1,0.2c0.2-2.4,0.4-4.8,0.6-7.3L76.9,46.8z"/>
<polyline class="st5" points="98.1,40.3 97.3,88.2 61.6,113 25.6,89.7 25.6,40.3 "/>
<line class="st7" x1="30.2" y1="44.5" x2="30.3" y2="88.4"/>
<line class="st7" x1="93.7" y1="44.1" x2="93.1" y2="87.2"/>
<line class="st7" x1="30.1" y1="88" x2="62" y2="108.7"/>
<line class="st7" x1="93.4" y1="86.8" x2="61.5" y2="108.6"/>
<line class="st7" x1="29.7" y1="44.5" x2="93.7" y2="44.5"/>
<path class="st8" d="M30.3,88.4C36,63.2,64.7,49,93.4,53"/>
<path class="st8" d="M93.2,87.4C87.5,62.2,58.8,48,30.1,52"/>
</svg>
