<?xml version="1.0" encoding="utf-8"?>
<!-- Generator: Adobe Illustrator 19.2.1, SVG Export Plug-In . SVG Version: 6.00 Build 0)  -->
<svg version="1.1" id="Layer_1" xmlns="http://www.w3.org/2000/svg" xmlns:xlink="http://www.w3.org/1999/xlink" x="0px" y="0px"
	 viewBox="0 0 191.5 112.2" style="enable-background:new 0 0 191.5 112.2;" xml:space="preserve">
<style type="text/css">
	.st0{fill:#FBA85F;}
	.st1{fill:#0BB0E7;}
	.st2{fill:#FA9E4D;}
	.st3{fill:#EB5540;}
</style>
<circle class="st0" cx="55.1" cy="33.8" r="21.9"/>
<path class="st1" d="M37.2,55.7c-1.2,0.1-2.4,0.5-3,0.7c-6.1,2.3-7.8,6.3-11,10.6c-2.5,3.3-4.6,8-7.7,10.9l-1.4,1.1h47.4V55.7"/>
<path class="st1" d="M73.4,55.7c1.2,0.1,2.4,0.5,3,0.7c6.1,2.3,7.8,6.3,11,10.6c2.5,3.3,4.6,8,7.7,10.9l1.4,1.1H49.2V55.7"/>
<circle class="st0" cx="136.6" cy="33.8" r="21.9"/>
<path class="st1" d="M118.7,55.7c-1.2,0.1-2.4,0.5-3,0.7c-6.1,2.3-7.8,6.3-11,10.6c-2.5,3.3-4.6,8-7.7,10.9l-1.4,1.1h47.4V55.7"/>
<path class="st1" d="M154.9,55.7c1.2,0.1,2.4,0.5,3,0.7c6.1,2.3,7.8,6.3,11,10.6c2.5,3.3,4.6,8,7.7,10.9l1.4,1.1h-47.4V55.7"/>
<path class="st1" d="M77.4,78c-1.2,0.1-2.4,0.5-3,0.7c-6.1,2.3-7.8,6.3-11,10.6c-2.5,3.3-4.6,8-7.7,10.9l-1.4,1.1h47.4V78"/>
<path class="st1" d="M113.7,78c1.2,0.1,2.4,0.5,3,0.7c6.1,2.3,7.8,6.3,11,10.6c2.5,3.3,4.6,8,7.7,10.9l1.4,1.1H89.4V78"/>
<circle class="st0" cx="95.6" cy="57" r="21.9"/>
<ellipse transform="matrix(0.981 -0.1939 0.1939 0.981 -16.6815 15.9042)" class="st0" cx="72.9" cy="93.1" rx="2.2" ry="2.2"/>
<path class="st0" d="M68.7,96.8c3.4-0.8,3.9-2.9,3.9-5.4c0-3.2-4.1-5.8-9.2-5.8s-9.2,2.6-9.2,5.8c0,2.5,2.2,4.5,5.6,5.4
	c0.2,0,0.3,0,0.4,0.1c0.3,0,0.5,0,0.7,0.1l6.8,0C68.2,96.9,68.5,96.9,68.7,96.8z"/>
<ellipse transform="matrix(0.981 -0.1939 0.1939 0.981 -13.1686 7.679)" class="st0" cx="32.6" cy="71.1" rx="2.2" ry="2.2"/>
<path class="st0" d="M28.5,74.8c3.4-0.8,3.9-2.9,3.9-5.4c0-3.2-4.1-5.8-9.2-5.8s-9.2,2.6-9.2,5.8c0,2.5,2.2,4.5,5.6,5.4
	c0.2,0,0.3,0,0.4,0.1c0.3,0,0.5,0,0.7,0.1l6.8,0C28,74.8,28.2,74.8,28.5,74.8z"/>
<ellipse transform="matrix(0.1939 -0.981 0.981 0.1939 58.2684 213.1015)" class="st0" cx="158.8" cy="71.1" rx="2.2" ry="2.2"/>
<path class="st0" d="M163,74.8c-3.4-0.8-3.9-2.9-3.9-5.4c0-3.2,4.1-5.8,9.2-5.8s9.2,2.6,9.2,5.8c0,2.5-2.2,4.5-5.6,5.4
	c-0.2,0-0.3,0-0.4,0.1c-0.3,0-0.5,0-0.7,0.1l-6.8,0C163.5,74.8,163.2,74.8,163,74.8z"/>
</svg>
