<?xml version="1.0" encoding="utf-8"?>
<!-- Generator: Adobe Illustrator 19.2.1, SVG Export Plug-In . SVG Version: 6.00 Build 0)  -->
<svg version="1.1" id="Layer_1" xmlns="http://www.w3.org/2000/svg" xmlns:xlink="http://www.w3.org/1999/xlink" x="0px" y="0px"
	 viewBox="0 0 173.3 128" style="enable-background:new 0 0 173.3 128;" xml:space="preserve">
<style type="text/css">
	.st0{fill:#FBA85F;}
	.st1{fill:#0BB0E7;}
	.st2{fill:#FA9E4D;}
	.st3{fill:#EB5540;}
	.st4{fill:#24B8E9;}
</style>
<path class="st4" d="M118.1,75.9h-55c-6.6,0-12-5.4-12-12V44.1c0-6.6,5.4-12,12-12h55c6.6,0,12,5.4,12,12v19.8
	C130.1,70.5,124.7,75.9,118.1,75.9z"/>
<path class="st4" d="M33.8,70.8c-4,20,0.3,37.7,9.6,39.5c9.3,1.8,12.2-13.5,24-32.8c10.9-17.8-0.3-37.7-9.6-39.5
	C48.5,36.1,37.8,50.8,33.8,70.8z"/>
<path class="st4" d="M148.4,70.8c4,20-0.3,37.7-9.6,39.5c-9.3,1.8-12.2-13.5-24-32.8c-10.9-17.8,0.3-37.7,9.6-39.5
	C133.7,36.1,144.4,50.8,148.4,70.8z"/>
<circle class="st2" cx="108.8" cy="69.4" r="8.3"/>
<circle class="st2" cx="73.3" cy="69.4" r="8.3"/>
<circle class="st4" cx="61.4" cy="41.5" r="14.2"/>
<circle class="st4" cx="120.2" cy="41.5" r="14.2"/>
</svg>
