<?xml version="1.0" encoding="utf-8"?>
<!-- Generator: Adobe Illustrator 19.2.1, SVG Export Plug-In . SVG Version: 6.00 Build 0)  -->
<svg version="1.1" id="Layer_1" xmlns="http://www.w3.org/2000/svg" xmlns:xlink="http://www.w3.org/1999/xlink" x="0px" y="0px"
	 viewBox="0 0 171.8 119.5" style="enable-background:new 0 0 171.8 119.5;" xml:space="preserve">
<style type="text/css">
	.st0{fill:#FBA85F;}
	.st1{fill:#0BB0E7;}
	.st2{fill:#FA9E4D;}
	.st3{fill:#EB5540;}
	.st4{fill:#24B8E9;}
	.st5{fill:#FFFFFF;}
</style>
<ellipse class="st3" cx="75.7" cy="58" rx="16" ry="15"/>
<path class="st3" d="M90.9,97.4L90.9,97.4C90.9,97.4,90.9,97.4,90.9,97.4L90.9,67h-28l27.3,29.7C90.4,96.9,90.7,97.2,90.9,97.4z"/>
<ellipse class="st3" cx="106" cy="58" rx="16" ry="15"/>
<path class="st3" d="M91.1,97.2c0,0,0.1-0.1,0.1-0.1L118.8,67h-28v30.3c0,0,0.1,0.1,0.1,0.1L91.1,97.2z"/>
<polyline class="st3" points="90.9,96.9 78.4,59.9 101.7,59.9 "/>
<rect x="28.3" y="47.5" class="st2" width="10" height="53.9"/>
<path class="st2" d="M49,18.2h-5.5c0,0.4-0.1,0.8-0.3,1.1l0,21c-0.8,1.6-5.8,1.6-6.7,0l0-21.5c-0.1-0.2-0.2-0.4-0.3-0.7l-5.3,0.1
	c-0.1,0.4-0.2,0.7-0.5,1l0,21c-0.8,1.6-5.9,1.6-6.7,0l0-21.1c-0.2-0.3-0.2-0.7-0.3-1l-5.6,0c-0.8,1.8-0.8,3.9-0.8,6v15.4
	c0,7.7,6.3,14,14,14h4.9c7.7,0,14-6.3,14-14V24.2C49.7,22.1,49.9,20,49,18.2z"/>
<circle class="st2" cx="33.3" cy="101.6" r="5"/>
<path class="st2" d="M21.6,21.2h-2.1c-1.1,0-2-0.9-2-2v0c0-1.1,0.9-2,2-2h2.1c1.1,0,2,0.9,2,2v0C23.6,20.3,22.7,21.2,21.6,21.2z"/>
<path class="st2" d="M34.4,21.2h-2.1c-1.1,0-2-0.9-2-2v0c0-1.1,0.9-2,2-2h2.1c1.1,0,2,0.9,2,2v0C36.4,20.3,35.5,21.2,34.4,21.2z"/>
<path class="st2" d="M47.2,21.2h-2.1c-1.1,0-2-0.9-2-2v0c0-1.1,0.9-2,2-2h2.1c1.1,0,2,0.9,2,2v0C49.2,20.3,48.3,21.2,47.2,21.2z"/>
<polyline class="st2" points="141.2,47.7 141.2,101.7 151.2,101.7 151.2,47.7 "/>
<circle class="st2" cx="146.2" cy="101.9" r="5"/>
<path class="st2" d="M139.9,19.7c0.1-0.1,0.1-0.3,0.2-0.4c0,0,0,0,0,0c0.1-0.2,0.1-0.3,0.2-0.5c0.2-0.3,0.3-0.5,0.5-0.8
	c0-0.1,0.1-0.2,0.1-0.3c2.2-3,5.6-4.8,9-4.3c0.6,0.3,1,0.8,1.4,1.4c0,0.2,0.1,0.3,0.1,0.5c0,0.2,0,0.4,0.1,0.6l-0.4,36.8
	c-1.1,4.1-5.3,6.6-9.5,5.5h0c-4.1-1.1-6.6-5.3-5.5-9.5L139.9,19.7z"/>
</svg>
