<?xml version="1.0" encoding="utf-8"?>
<!-- Generator: Adobe Illustrator 19.2.1, SVG Export Plug-In . SVG Version: 6.00 Build 0)  -->
<svg version="1.1" id="Layer_1" xmlns="http://www.w3.org/2000/svg" xmlns:xlink="http://www.w3.org/1999/xlink" x="0px" y="0px"
	 viewBox="0 0 146.5 142.5" style="enable-background:new 0 0 146.5 142.5;" xml:space="preserve">
<style type="text/css">
	.st0{fill:#FBA85F;}
	.st1{fill:#0BB0E7;}
	.st2{fill:#FA9E4D;}
	.st3{fill:#EB5540;}
	.st4{fill:#24B8E9;}
	.st5{fill:#FFFFFF;}
</style>
<circle class="st4" cx="35.1" cy="118.4" r="10.8"/>
<circle class="st0" cx="35.1" cy="118.4" r="6.4"/>
<path class="st4" d="M108.2,17.6c-0.1,0-0.1,0-0.2,0c-0.3-0.1-0.6-0.1-0.9-0.1c-2.7,0-4.9,2.2-4.9,4.9c0,2.7,2.2,4.9,4.9,4.9
	c2.7,0,4.9-2.2,4.9-4.9C112,20,110.4,18.1,108.2,17.6z"/>
<path class="st4" d="M108.2,47.3c-0.1,0-0.1,0-0.2,0c-0.3-0.1-0.6-0.1-0.9-0.1c-2.3,0-4.2,1.6-4.7,3.7c-8.7,0-17.4,0-26.1,0
	c0,0-0.1,0-0.1,0c-0.1,0-0.2,0-0.3,0c-0.9,0-1.4-0.5-1.6-1.2c0,0,0,0,0,0c0,0,0,0,0,0c0-0.1,0-0.2-0.1-0.3c0-0.1,0-0.1,0-0.2
	c0-8,0-15.9-0.1-23.9c0-0.1,0-0.1,0.1-0.2c0-0.2,0.1-0.5,0.2-0.7c0,0,0,0,0,0c0,0,0,0,0,0c0,0,0,0,0-0.1c0,0,0,0,0.1-0.1
	c0.1-0.1,0.3-0.2,0.4-0.3c0,0,0.1,0,0.1,0c0.2-0.1,0.4-0.2,0.7-0.2c0,0,0.1,0,0.1,0l0.1,0c0,0,0,0,0,0c0,0,0,0,0,0l32.4-0.2
	c0.2-1.9,0.4-3.8,0.2-5.6c-0.1-0.1-0.2-0.2-0.3-0.3c-0.2,0-0.4,0-0.6-0.1l-34.2,0.2c-0.3,0-0.5,0-0.7,0.1c-1.1,0.1-2.1,0.5-2.9,1.3
	c-1,0.9-1.6,2.3-1.6,3.6c0,0,0,0,0,0c0,9,0,18.1,0.1,27.1c0,0,0,0,0,0c0,0.3,0,0.5,0.1,0.8c0,0.5,0,1,0.2,1.5c0,0.4,0.1,0.7,0.2,1.1
	c0,0.1,0,0.2,0,0.3c0.3,1.4,1.4,2.5,2.7,3c0.2,0.1,0.4,0.2,0.6,0.2c0.1,0,0.2,0,0.3,0.1c0,0,0,0,0,0c0.5,0.1,1,0.1,1.5,0.1
	c10.7,0,21.5,0,32.2,0.1c0.1,0,0.1,0,0.2,0c0.2,0,0.3,0,0.5,0c0.2,0,0.3,0,0.4,0c0.1,0,0.1,0,0.2,0c2.7,0,4.9-2.2,4.9-4.9
	C112,49.7,110.4,47.8,108.2,47.3z"/>
<path class="st4" d="M68.2,33.5l-27.4,0c-0.1,0-0.1,0-0.2,0c-0.3,0-0.6,0-0.9,0c-3.9,0.6-7.4,3.4-7.4,7.5c0,0.1,0,0.2,0,0.3
	c0,0,0,0,0,0v67c0,3.9,6,3.9,6,0V42.2c0-0.1,0-0.1,0-0.2c0.1-0.2,0.1-0.4,0.2-0.6c0.1-0.4,0.4-0.6,0.7-0.9c0.2-0.2,0.4-0.4,0.6-0.5
	c0,0,0.1-0.1,0.1-0.1c0,0,0,0,0.1,0c0.3-0.2,0.7-0.3,1.1-0.3c0.1,0,0.2,0,0.3,0l26.9,0C72.1,39.5,72.1,33.5,68.2,33.5z"/>
</svg>
