<?xml version="1.0" encoding="utf-8"?>
<!-- Generator: Adobe Illustrator 19.2.1, SVG Export Plug-In . SVG Version: 6.00 Build 0)  -->
<svg version="1.1" id="Layer_1" xmlns="http://www.w3.org/2000/svg" xmlns:xlink="http://www.w3.org/1999/xlink" x="0px" y="0px"
	 viewBox="0 0 160.5 164" style="enable-background:new 0 0 160.5 164;" xml:space="preserve">
<style type="text/css">
	.st0{fill:#FBA85F;}
	.st1{fill:#0BB0E7;}
	.st2{fill:#FA9E4D;}
	.st3{fill:#EB5540;}
</style>
<polygon class="st3" points="77.2,58.7 83.2,52.8 109.5,139.4 92.3,143.5 "/>
<path class="st0" d="M40.8,54.3c-0.4,0.2-0.8,0.3-1.2,0.3"/>
<path class="st0" d="M35.9,55.4c-2.4,0.7-5.8,2.3-8.2,4.1c-0.2,0.2-0.5,0.4-0.7,0.6c-0.1,0.1-0.3,0.3-0.4,0.4
	c-0.1,0.1-0.3,0.2-0.4,0.3c-0.2,0.3-0.4,0.5-0.7,0.7c-0.4,0.5-0.9,1-1.3,1.5c-0.1,0.2-0.3,0.4-0.4,0.6c-0.1,0.2-0.2,0.4-0.4,0.6
	c-0.1,0.1-0.1,0.2-0.2,0.3c0,0,0,0,0,0l-0.7,1.1c-0.1,0.1-0.1,0.2-0.2,0.4c-0.2,0.4-0.3,0.8-0.5,1.2c0,0.2-0.1,0.3-0.2,0.5
	c-0.1,0.7-0.3,1.5-0.4,2.2c0,0.1-0.1,0.3-0.1,0.5c-0.1,0.4-0.1,0.7-0.1,1.1c0,0,0,0,0,0c0,0.3,0,0.7-0.1,1c0,0.3,0,0.7,0,1
	c0,0.4,0,0.8-0.1,1.1c-0.1,6.1-1.1,12.3-2.2,18.3L57.5,69c1.8-1.4,4.1-2.6,5.4-4c0.2-0.2,0.5-0.4,0.7-0.5c0.2-0.2,0.4-0.4,0.6-0.6
	c2.3-2.2,5-4.1,7.2-6.3c3.2-3.3,5.6-6.7,7.8-10.6c-0.1-0.2-0.1-0.3-0.1-0.5l-36.9,7.3"/>
<path class="st0" d="M47.8,30.1c-2.3-1-6-1.9-8.9-1.9c-0.3,0-0.6,0-0.9,0c-0.2,0-0.4,0-0.6,0c-0.2,0-0.4,0-0.5,0
	c-0.3,0.1-0.6,0.1-1,0.1c-0.7,0.1-1.3,0.2-1.9,0.3c-0.2,0.1-0.5,0.1-0.7,0.2c-0.2,0.1-0.4,0.1-0.7,0.2c-0.1,0-0.2,0.1-0.3,0.1
	c0,0,0,0,0.1,0l-1.2,0.4c-0.1,0.1-0.3,0.1-0.4,0.2c-0.4,0.2-0.8,0.4-1.2,0.6c-0.1,0.1-0.3,0.2-0.4,0.3c-0.6,0.5-1.1,1-1.7,1.5
	c0,0-0.2,0.2-0.4,0.4c-0.3,0.3-0.5,0.5-0.8,0.8c0,0,0,0,0,0c-0.2,0.3-0.4,0.5-0.7,0.7c-0.2,0.3-0.4,0.5-0.7,0.8
	c-0.2,0.3-0.5,0.6-0.8,0.8c-3.9,4.7-8.6,8.9-13.2,12.8l45.2,5.8c2.2,0,4.8,0.6,6.7,0.3c0.3,0,0.6,0,0.9,0c0.3,0,0.6,0,0.9,0
	c3.2-0.3,6.4,0,9.6-0.4c4.5-0.6,8.5-1.7,12.7-3.3c0.1-0.2,0.1-0.3,0.2-0.5L53.7,32.8"/>
<path class="st0" d="M104.8,54.5c0.4,0.2,0.8,0.3,1.2,0.3"/>
<path class="st0" d="M109.7,55.7c2.4,0.7,5.8,2.3,8.2,4.1c0.2,0.2,0.5,0.4,0.7,0.6c0.1,0.1,0.3,0.3,0.4,0.4c0.1,0.1,0.3,0.2,0.4,0.3
	c0.2,0.3,0.4,0.5,0.7,0.7c0.4,0.5,0.9,1,1.3,1.5c0.1,0.2,0.3,0.4,0.4,0.6c0.1,0.2,0.2,0.4,0.4,0.6c0.1,0.1,0.1,0.2,0.2,0.3
	c0,0,0,0,0,0l0.7,1.1c0.1,0.1,0.1,0.2,0.2,0.4c0.2,0.4,0.3,0.8,0.5,1.2c0,0.2,0.1,0.3,0.2,0.5c0.1,0.7,0.3,1.5,0.4,2.2
	c0,0.1,0.1,0.3,0.1,0.5c0.1,0.4,0.1,0.7,0.1,1.1c0,0,0,0,0,0c0,0.3,0,0.7,0.1,1c0,0.3,0,0.7,0,1c0,0.4,0,0.8,0.1,1.1
	c0.1,6.1,1.1,12.3,2.2,18.3L88.1,69.3c-1.8-1.4-4.1-2.6-5.4-4c-0.2-0.2-0.5-0.4-0.7-0.5c-0.2-0.2-0.4-0.4-0.6-0.6
	c-2.3-2.2-5-4.1-7.2-6.3c-3.2-3.3-5.6-6.7-7.8-10.6c0.1-0.2,0.1-0.3,0.1-0.5l36.9,7.3"/>
<path class="st0" d="M97.8,30.4c2.3-1,6-1.9,8.9-1.9c0.3,0,0.6,0,0.9,0c0.2,0,0.4,0,0.6,0c0.2,0,0.4,0,0.5,0c0.3,0.1,0.6,0.1,1,0.1
	c0.7,0.1,1.3,0.2,1.9,0.3c0.2,0.1,0.5,0.1,0.7,0.2c0.2,0.1,0.4,0.1,0.7,0.2c0.1,0,0.2,0.1,0.3,0.1c0,0,0,0-0.1,0l1.2,0.4
	c0.1,0.1,0.3,0.1,0.4,0.2c0.4,0.2,0.8,0.4,1.2,0.6c0.1,0.1,0.3,0.2,0.4,0.3c0.6,0.5,1.1,1,1.7,1.5c0,0,0.2,0.2,0.4,0.4
	c0.3,0.3,0.5,0.5,0.8,0.8c0,0,0,0,0,0c0.2,0.3,0.4,0.5,0.7,0.7c0.2,0.3,0.4,0.5,0.7,0.8c0.2,0.3,0.5,0.6,0.8,0.8
	c3.9,4.7,8.6,8.9,13.2,12.8l-45.2,5.8c-2.2,0-4.8,0.6-6.7,0.3c-0.3,0-0.6,0-0.9,0c-0.3,0-0.6,0-0.9,0c-3.2-0.3-6.4,0-9.6-0.4
	C67,53.8,63,52.7,58.8,51c-0.1-0.2-0.1-0.3-0.2-0.5l33.3-17.5"/>
<ellipse class="st3" cx="84" cy="139.5" rx="30.6" ry="6.5"/>
<path class="st0" d="M58.2,69.4c-1.2,2.2-2.3,5.8-2.6,8.8c0,0.3,0,0.6-0.1,0.9c0,0.2,0,0.4,0,0.6c0,0.2,0,0.4,0,0.5
	c0,0.3,0.1,0.7,0,1c0.1,0.7,0.1,1.3,0.2,2c0.1,0.2,0.1,0.5,0.1,0.7c0.1,0.2,0.1,0.4,0.1,0.7c0,0.1,0.1,0.2,0.1,0.3c0,0,0,0,0-0.1
	l0.3,1.2c0.1,0.1,0.1,0.3,0.1,0.4c0.2,0.4,0.4,0.8,0.5,1.2c0.1,0.2,0.2,0.3,0.3,0.5c0.4,0.6,0.9,1.2,1.3,1.8c0,0,0.2,0.3,0.3,0.4
	c0.2,0.3,0.5,0.6,0.7,0.8c0,0,0,0,0,0c0.2,0.2,0.4,0.5,0.6,0.7c0.3,0.2,0.5,0.5,0.7,0.7c0.3,0.2,0.5,0.5,0.8,0.8
	c4.4,4.2,8.3,9.2,11.8,14.1l9.2-44.6c0.2-2.2,0.9-4.8,0.8-6.7c0-0.3,0-0.6,0.1-0.9c0-0.3,0-0.6,0-0.9c0-3.2,0.4-6.4,0.3-9.6
	c-0.2-4.5-1.1-8.6-2.4-12.9c-0.2-0.1-0.3-0.2-0.5-0.2L61.3,63.7"/>
<path class="st0" d="M66,27.3c0.9-2.4,2.7-5.6,4.7-7.9c0.2-0.2,0.4-0.4,0.6-0.7c0.1-0.1,0.3-0.3,0.4-0.4c0.1-0.1,0.2-0.3,0.4-0.4
	c0.3-0.2,0.5-0.4,0.7-0.6c0.6-0.4,1.1-0.8,1.6-1.2c0.2-0.1,0.4-0.2,0.6-0.4c0.2-0.1,0.4-0.2,0.6-0.3c0.1,0,0.2-0.1,0.3-0.1
	c0,0,0,0,0,0l1.1-0.6c0.1-0.1,0.3-0.1,0.4-0.2c0.4-0.1,0.8-0.3,1.2-0.4c0.2,0,0.4-0.1,0.5-0.1c0.7-0.1,1.5-0.2,2.2-0.2
	c0.1,0,0.3,0,0.5-0.1c0.4,0,0.7,0,1.1,0c0,0,0,0,0,0c0.3,0,0.7,0,1,0c0.3,0,0.7,0.1,1,0c0.4,0,0.8,0,1.1,0
	c6.1,0.4,12.4-0.2,18.4-0.9l-26.6,37c-1.5,1.7-2.9,3.9-4.4,5.1c-0.2,0.2-0.4,0.4-0.6,0.7c-0.2,0.2-0.4,0.4-0.6,0.6
	c-2.3,2.1-4.4,4.7-6.8,6.7c-3.5,2.9-7,5.1-11.1,7c-0.2-0.1-0.3-0.1-0.5-0.2l10-36.2"/>
</svg>
